<?xml version="1.0" encoding="utf-8"?>
<!-- Generator: Adobe Illustrator 17.0.0, SVG Export Plug-In . SVG Version: 6.00 Build 0)  -->
<!DOCTYPE svg PUBLIC "-//W3C//DTD SVG 1.1//EN" "http://www.w3.org/Graphics/SVG/1.1/DTD/svg11.dtd">
<svg version="1.1" id="Layer_1" xmlns="http://www.w3.org/2000/svg" xmlns:xlink="http://www.w3.org/1999/xlink" x="0px" y="0px"
	 width="30.256px" height="48.729px" viewBox="0 0 30.256 48.729" enable-background="new 0 0 30.256 48.729" xml:space="preserve">
<path fill="#3FAEBA" d="M30.256,14.805C30.256,6.629,23.483,0,15.129,0C6.773,0,0,6.629,0,14.805c0,1.5,0.229,2.947,0.653,4.312
	H0.647l0.018,0.034c0.672,1.516,14.464,29.578,14.464,29.578s13.792-28.063,14.466-29.582l0.016-0.03h-0.008
	C30.027,17.753,30.256,16.305,30.256,14.805z M15.129,22.594c-3.691,0-6.682-2.991-6.682-6.682c0-3.69,2.991-6.681,6.682-6.681
	c3.69,0,6.681,2.991,6.681,6.681C21.81,19.603,18.818,22.594,15.129,22.594z"/>
<ellipse fill="#FFFFFF" cx="15.301" cy="14.765" rx="11.252" ry="11.371"/>
<g>
	<polygon fill="#F99958" points="8.273,8.377 22.342,8.377 23.06,20.752 19.798,20.752 19.798,19.514 16.911,19.514 16.911,20.752 
		16.911,20.752 14.023,20.752 14.023,19.514 11.136,19.514 11.136,20.752 7.698,20.752 	"/>
	<polygon fill="#D37E31" points="8.273,8.377 22.342,8.377 22.496,11.264 8.146,11.264 	"/>
	<rect x="10.036" y="10.714" fill="#D37E31" width="1.375" height="7.7"/>
	<rect x="13.198" y="10.714" fill="#D37E31" width="1.375" height="7.7"/>
	<rect x="16.086" y="10.714" fill="#D37E31" width="1.375" height="7.7"/>
	<rect x="19.248" y="10.714" fill="#D37E31" width="1.375" height="7.7"/>
</g>
</svg>
